<?xml version="1.0" standalone="no"?>
<!DOCTYPE svg PUBLIC "-//W3C//DTD SVG 20010904//EN"
 "http://www.w3.org/TR/2001/REC-SVG-20010904/DTD/svg10.dtd">
<svg version="1.0" xmlns="http://www.w3.org/2000/svg"
 width="943.000000pt" height="943.000000pt" viewBox="0 0 943.000000 943.000000"
 preserveAspectRatio="xMidYMid meet">
<metadata>
Created by potrace 1.14, written by Peter Selinger 2001-2017
</metadata>
<g transform="translate(0.000000,943.000000) scale(0.100000,-0.100000)"
fill="#000000" stroke="none">
<path d="M0 4715 l0 -4715 4715 0 4715 0 0 4715 0 4715 -4715 0 -4715 0 0
-4715z m2627 3921 c-1 -14 -10 -33 -20 -44 -9 -10 -23 -36 -31 -58 -23 -61
-19 -7 4 67 32 100 30 97 41 77 5 -10 8 -29 6 -42z m-140 -207 c-15 -24 -21
-16 -13 18 6 20 10 23 16 13 5 -7 3 -21 -3 -31z m132 -410 c-22 -14 -33 -10
-19 6 7 8 17 12 22 9 6 -4 5 -10 -3 -15z m1 -29 c-19 -14 -28 -16 -39 -7 -11
10 -10 13 10 18 45 13 55 9 29 -11z m2385 -100 c16 -18 16 -20 2 -20 -10 0
-17 6 -17 14 0 8 -6 17 -12 19 -8 3 -8 6 -2 6 6 1 19 -8 29 -19z m39 -45 c3
-8 15 -14 28 -12 18 1 23 -3 22 -21 0 -15 4 -21 13 -18 7 3 13 -1 13 -9 0 -8
4 -15 8 -15 11 0 44 -71 37 -78 -3 -4 -8 3 -11 15 -5 18 -12 21 -40 17 -27 -3
-34 -1 -34 13 0 10 -14 36 -30 57 -30 39 -38 66 -21 66 5 0 11 -7 15 -15z
m-144 -32 c0 -7 5 -13 10 -13 13 0 50 -37 50 -50 0 -5 3 -10 8 -10 4 0 12 -11
19 -25 6 -14 9 -25 8 -25 -7 0 -49 45 -75 80 -14 18 -33 42 -42 53 -23 26 -23
30 2 15 11 -7 20 -18 20 -25z m-506 -3 c-6 -6 -19 -7 -30 -3 -17 6 -17 8 6 13
29 8 38 4 24 -10z m-1998 -26 c-4 -9 -9 -15 -11 -12 -3 3 -3 13 1 22 4 9 9 15
11 12 3 -3 3 -13 -1 -22z m13 -18 c-9 -8 -10 -7 -5 7 3 10 7 24 7 30 1 7 3 4
6 -7 3 -10 -1 -23 -8 -30z m1801 40 c0 -11 -19 -15 -25 -6 -3 5 1 10 9 10 9 0
16 -2 16 -4z m247 -18 c21 -12 42 -28 46 -35 4 -7 17 -13 29 -13 14 0 18 -5
14 -15 -3 -8 -1 -15 4 -15 6 0 10 -6 10 -14 0 -8 6 -17 13 -19 9 -4 8 -8 -3
-16 -21 -15 -33 -13 -27 3 4 10 1 13 -8 9 -8 -3 -18 2 -21 10 -3 9 -21 21 -40
27 -33 11 -47 30 -21 30 6 0 0 11 -15 24 -16 13 -28 28 -28 35 0 15 3 14 47
-11z m283 -10 c0 -5 -7 -3 -15 6 -8 8 -15 18 -15 22 0 3 7 1 15 -6 8 -7 15
-17 15 -22z m100 7 c7 -14 17 -25 22 -25 4 0 8 -5 8 -11 0 -5 -5 -7 -12 -3 -7
4 -8 3 -4 -4 4 -6 13 -9 20 -6 8 3 17 1 20 -4 3 -6 -1 -13 -10 -16 -18 -7 -43
19 -44 43 0 8 -7 23 -17 33 -9 10 -12 18 -6 18 5 0 16 -11 23 -25z m-488 -32
c18 -10 35 -21 36 -25 2 -5 12 -8 21 -8 10 0 26 -10 37 -21 10 -12 14 -20 9
-18 -32 13 -111 55 -113 62 -2 4 -12 7 -22 7 -10 0 -22 5 -25 10 -10 16 20 12
57 -7z m393 -13 c3 -5 1 -10 -4 -10 -6 0 -11 5 -11 10 0 6 2 10 4 10 3 0 8 -4
11 -10z m459 -26 c3 -8 2 -12 -4 -9 -6 3 -10 10 -10 16 0 14 7 11 14 -7z
m-434 -3 c0 -5 14 -23 30 -41 17 -18 30 -39 30 -47 0 -9 -18 7 -40 35 -42 52
-47 62 -30 62 6 0 10 -4 10 -9z m138 -35 c-16 -17 -40 -2 -31 20 4 10 10 11
24 3 15 -8 17 -12 7 -23z m227 24 c3 -5 2 -10 -4 -10 -5 0 -13 5 -16 10 -3 6
-2 10 4 10 5 0 13 -4 16 -10z m-771 -15 c18 -14 18 -15 2 -15 -9 0 -24 7 -32
15 -21 20 4 20 30 0z m466 5 c0 -5 -2 -10 -4 -10 -3 0 -8 5 -11 10 -3 6 -1 10
4 10 6 0 11 -4 11 -10z m-505 -30 c3 -5 1 -10 -4 -10 -6 0 -11 5 -11 10 0 6 2
10 4 10 3 0 8 -4 11 -10z m199 -21 c39 -43 27 -46 -20 -4 -25 22 -33 35 -23
35 9 0 28 -14 43 -31z m-124 11 c0 -5 -2 -10 -4 -10 -3 0 -8 5 -11 10 -3 6 -1
10 4 10 6 0 11 -4 11 -10z m-25 -20 c3 -5 2 -10 -4 -10 -5 0 -13 5 -16 10 -3
6 -2 10 4 10 5 0 13 -4 16 -10z m265 -10 c0 -5 -5 -10 -11 -10 -5 0 -7 5 -4
10 3 6 8 10 11 10 2 0 4 -4 4 -10z m-640 -20 c0 -5 -4 -10 -10 -10 -5 0 -10 5
-10 10 0 6 5 10 10 10 6 0 10 -4 10 -10z m38 -22 c9 -9 12 -9 12 0 0 21 28 13
49 -14 11 -14 24 -23 29 -20 6 3 15 -1 22 -9 10 -12 9 -15 -6 -16 -15 -1 -14
-2 4 -8 13 -3 31 -18 40 -33 15 -25 15 -29 1 -43 -17 -17 -33 -19 -92 -9 -22
4 -41 13 -44 23 -4 9 -22 37 -41 64 -28 39 -32 50 -22 62 15 18 32 19 48 3z
m160 -5 c34 -35 100 -83 112 -83 7 0 2 -9 -11 -20 -20 -16 -21 -19 -7 -20 9 0
20 -5 24 -12 5 -8 2 -9 -9 -5 -12 5 -17 1 -17 -13 0 -26 -9 -25 -42 3 -29 24
-88 125 -88 151 0 21 16 20 38 -1z m267 -3 c-3 -5 -12 -10 -18 -10 -7 0 -6 4
3 10 19 12 23 12 15 0z m-473 -74 c16 -17 28 -34 28 -38 0 -4 7 -13 15 -22 11
-10 13 -24 9 -42 l-7 -27 -18 24 c-10 13 -19 28 -19 33 0 4 -13 25 -28 45 -15
20 -36 49 -47 66 l-18 30 29 -19 c16 -10 41 -33 56 -50z m-1652 19 c-7 -8 -18
-15 -24 -15 -6 0 -2 7 8 15 25 19 32 19 16 0z m1604 -51 c14 -15 26 -32 26
-39 0 -7 7 -15 15 -19 16 -6 21 -56 6 -56 -9 0 -46 44 -90 108 -21 31 -21 32
-3 32 11 0 31 -12 46 -26z m-64 -11 c11 -10 20 -23 20 -29 0 -7 3 -14 8 -16 4
-1 14 -16 23 -32 15 -27 15 -30 -3 -48 -11 -11 -21 -18 -22 -16 -1 2 -14 23
-30 46 -27 44 -29 73 -1 36 13 -17 14 -17 15 -1 0 9 -4 17 -10 17 -5 0 -10 9
-10 20 0 11 -4 20 -10 20 -5 0 -10 5 -10 10 0 14 7 13 30 -7z m-35 -23 c3 -5
1 -10 -4 -10 -6 0 -11 5 -11 10 0 6 2 10 4 10 3 0 8 -4 11 -10z m-150 -30 c3
-5 1 -10 -4 -10 -6 0 -11 5 -11 10 0 6 2 10 4 10 3 0 8 -4 11 -10z m40 -20 c3
-5 1 -10 -4 -10 -6 0 -11 5 -11 10 0 6 2 10 4 10 3 0 8 -4 11 -10z m-45 -114
c1 5 10 -9 22 -31 11 -22 24 -42 28 -45 4 -3 10 -15 14 -27 6 -18 1 -25 -26
-39 -18 -9 -36 -21 -40 -27 -3 -6 -16 11 -28 37 -13 26 -20 49 -17 52 3 3 8
-4 12 -15 3 -12 13 -21 21 -21 8 0 14 -5 14 -12 0 -6 3 -9 6 -5 3 3 -4 24 -17
47 -19 33 -21 43 -10 49 11 7 11 13 0 32 -11 22 -11 23 4 10 10 -7 17 -10 17
-5z m83 -57 c6 -23 -9 -16 -23 11 -8 16 -7 18 4 14 8 -3 16 -14 19 -25z m27
-39 c0 -5 -4 -10 -10 -10 -5 0 -10 5 -10 10 0 6 5 10 10 10 6 0 10 -4 10 -10z
m230 -983 c25 3 52 5 60 4 86 -6 113 -11 127 -22 10 -8 14 -9 10 -2 -4 6 -3
14 3 18 5 3 10 0 10 -7 0 -9 3 -9 10 2 5 8 10 10 10 5 0 -12 59 -40 67 -31 4
3 1 6 -5 6 -7 0 -12 5 -12 11 0 6 12 1 26 -10 31 -24 57 -29 28 -5 -16 14 -15
14 9 0 15 -9 32 -14 37 -11 6 3 10 -2 10 -12 1 -17 2 -16 16 2 11 13 18 16 21
8 3 -8 12 -9 29 -3 13 5 24 6 24 2 0 -4 5 0 10 8 5 8 10 11 10 5 0 -11 60 -16
60 -5 0 4 19 6 43 5 23 -1 45 2 50 9 5 8 10 7 17 -4 5 -8 10 -10 11 -5 0 6 4
1 9 -10 8 -19 9 -19 9 -1 1 17 3 17 25 3 13 -9 34 -13 47 -11 19 5 21 4 9 -5
-12 -9 -13 -11 -1 -11 8 0 23 8 33 17 18 16 18 16 12 0 -6 -18 3 -21 30 -11 9
3 13 11 10 16 -9 14 39 -2 48 -16 5 -8 8 -8 8 0 0 6 7 11 15 11 8 0 11 -5 8
-10 -4 -6 5 -7 22 -3 22 6 26 4 22 -8 -4 -9 -2 -16 3 -16 6 0 10 6 10 14 0 14
61 29 70 17 7 -8 60 -9 60 0 0 3 11 5 25 3 14 -1 38 4 53 12 25 13 28 12 44
-8 9 -12 14 -27 11 -33 -2 -5 3 -1 11 9 16 20 16 20 16 0 0 -13 3 -15 8 -7 6
9 12 8 25 -7 15 -18 15 -20 -1 -30 -16 -11 -16 -11 1 -6 11 3 17 1 16 -7 -3
-28 2 -36 19 -30 15 6 15 5 3 -10 -12 -15 -10 -17 15 -17 22 0 26 -3 14 -10
-11 -7 -11 -10 -2 -10 7 0 10 -5 6 -11 -3 -6 0 -15 7 -20 10 -6 8 -8 -8 -6
-12 0 -20 4 -17 8 2 4 -5 5 -16 2 -11 -3 -18 -9 -15 -13 6 -10 -15 -8 -32 3
-8 5 -22 -1 -35 -14 l-23 -23 28 17 c37 23 34 6 -5 -32 -24 -23 -34 -28 -41
-19 -6 9 -7 8 -3 -5 3 -11 -2 -22 -14 -29 -17 -11 -17 -13 -2 -25 23 -17 1
-16 -34 1 -36 19 -51 9 -24 -16 l21 -20 -25 -23 c-27 -25 -34 -45 -16 -45 6 0
10 -7 10 -16 0 -8 4 -13 9 -10 5 3 8 -2 7 -12 0 -10 6 -16 17 -16 9 1 17 -2
17 -7 0 -5 -7 -9 -15 -9 -8 0 -15 -4 -15 -10 0 -5 7 -7 15 -4 21 9 19 -12 -5
-36 -11 -11 -20 -15 -20 -9 0 8 -4 9 -13 0 -8 -6 -17 -7 -22 -3 -10 9 5 -40
15 -52 4 -4 11 2 15 14 6 19 28 25 26 7 -1 -4 -4 -6 -7 -4 -11 4 -23 -39 -19
-69 1 -15 -4 -34 -11 -42 -12 -11 -14 -11 -14 2 0 10 -6 13 -15 10 -8 -4 -12
-11 -8 -18 4 -6 -2 -4 -12 4 -17 14 -18 13 -12 -2 5 -15 2 -16 -18 -8 -17 6
-27 5 -35 -6 -7 -7 -18 -14 -24 -14 -6 0 -17 -9 -24 -20 -7 -11 -17 -20 -22
-20 -6 0 -26 -16 -46 -35 -19 -19 -41 -35 -48 -35 -8 0 -19 -6 -25 -14 -7 -8
-37 -22 -67 -32 -30 -9 -54 -21 -54 -25 0 -5 -6 -9 -14 -9 -8 0 -18 -9 -21
-20 -6 -17 -49 -48 -72 -51 -24 -3 -54 -21 -59 -34 -4 -8 -17 -15 -31 -15 -14
0 -22 -4 -18 -11 5 -7 79 -8 238 -3 219 6 256 12 241 36 -3 5 3 11 13 15 10 4
23 13 28 20 12 16 64 11 75 -7 4 -6 13 -5 25 4 17 12 25 12 52 1 22 -9 33 -10
33 -3 0 7 4 7 13 -1 8 -6 17 -8 20 -5 3 3 11 3 17 -1 9 -6 9 -10 -1 -16 -11
-7 -10 -9 4 -9 9 0 17 -4 17 -10 0 -5 -25 -10 -56 -10 -34 0 -53 4 -49 10 3 6
-1 10 -10 10 -9 0 -14 -4 -10 -9 3 -5 -9 -12 -27 -14 -18 -2 15 -5 75 -7 59
-1 110 -3 115 -4 4 -2 34 -6 67 -10 87 -11 186 -35 218 -52 15 -8 27 -13 27
-10 0 3 8 -1 18 -8 9 -8 32 -27 50 -42 22 -17 51 -62 80 -123 37 -77 47 -108
48 -156 2 -56 4 -60 28 -63 21 -3 25 0 20 15 -3 10 9 -8 26 -41 17 -32 29 -64
26 -72 -4 -10 -22 -14 -59 -14 l-53 0 -23 -132 c-13 -73 -31 -158 -42 -190
-24 -72 -79 -165 -117 -199 -72 -65 -209 -94 -413 -87 -59 2 -102 0 -96 -4 7
-4 27 -8 45 -8 20 0 35 -6 38 -15 4 -8 13 -15 21 -15 12 0 12 -3 -2 -16 -9
-10 -14 -26 -12 -36 3 -12 -1 -22 -10 -25 -10 -4 -11 -8 -3 -13 7 -4 -1 -16
-23 -33 -19 -14 -37 -23 -41 -20 -3 4 -6 -3 -6 -14 0 -14 -8 -23 -25 -27 -14
-4 -35 -16 -46 -27 -19 -19 -29 -21 -77 -15 -31 4 -59 11 -62 15 -5 10 -25 14
-50 12 -13 -1 -13 -2 0 -11 13 -8 13 -10 -1 -10 -9 0 -28 12 -43 27 -23 22
-29 24 -36 13 -8 -13 -16 -13 -57 3 -26 10 -69 25 -95 34 -48 14 -56 25 -39
52 6 9 11 10 15 2 19 -30 25 -3 21 91 -3 56 -7 103 -9 106 -7 7 -31 -12 -32
-25 -4 -45 -5 -48 -15 -24 -7 18 -12 21 -23 12 -16 -14 -78 -3 -69 12 4 6 0 8
-10 4 -9 -3 -18 0 -21 9 -3 8 -13 14 -23 14 -15 0 -16 2 -3 10 8 5 13 10 10
11 -3 0 -15 2 -27 5 -13 2 -23 -1 -23 -7 0 -6 -9 -8 -20 -4 -12 4 -19 2 -18
-4 4 -15 -115 -122 -129 -116 -7 2 -13 0 -13 -5 0 -5 -8 -6 -17 -3 -12 5 -15
2 -10 -10 3 -9 4 -17 1 -17 -10 0 -82 50 -85 59 -9 24 -123 12 -168 -18 -14
-8 -31 -16 -39 -16 -26 0 -22 -19 12 -59 29 -34 37 -37 63 -32 24 6 30 11 26
25 -3 11 1 22 8 26 7 5 10 4 6 -1 -3 -6 3 -11 14 -11 10 -1 19 2 19 5 0 4 17
8 38 9 50 2 65 6 74 17 3 5 5 -7 3 -28 -3 -28 1 -40 16 -49 10 -6 19 -17 19
-23 0 -6 12 -17 28 -24 39 -18 10 -25 -46 -10 -26 7 -51 16 -57 20 -15 10 -52
14 -140 14 -108 1 -167 -10 -210 -40 -20 -13 -34 -20 -30 -14 8 13 10 13 -50
-6 -27 -9 -63 -19 -80 -22 -58 -13 -257 -4 -272 12 -5 5 2 5 15 2 12 -4 22 -3
22 3 0 15 -41 25 -50 12 -11 -20 -125 75 -142 119 -9 24 -10 24 -23 7 -9 -13
-11 -27 -5 -45 14 -43 20 -96 9 -85 -5 5 -10 21 -11 35 -2 21 -6 25 -25 22
-15 -3 -23 0 -23 9 0 7 -11 24 -25 37 -17 16 -23 30 -19 43 4 14 -1 26 -17 39
-13 11 -19 18 -14 15 6 -3 37 -2 70 2 l60 7 -97 11 c-82 10 -105 17 -150 46
-121 77 -172 184 -228 472 -16 84 -20 96 -30 90 -17 -10 -91 16 -96 33 -3 9
-10 25 -16 36 -8 15 2 36 54 115 36 53 77 121 91 151 41 84 98 144 170 178
108 50 112 53 95 48 -26 -8 -30 8 -28 102 4 176 7 198 23 231 9 18 15 37 12
41 -3 4 3 32 11 61 24 80 28 113 20 191 -3 26 -1 50 3 53 5 2 9 25 9 50 1 29
9 55 23 75 12 16 23 37 24 47 5 43 50 138 59 124 4 -6 13 -11 19 -11 9 0 9 2
0 8 -9 6 -8 12 6 24 11 9 23 13 27 10 4 -4 4 1 1 11 -4 11 -1 17 8 17 8 0 15
-6 16 -12 0 -7 4 -4 9 7 5 11 9 15 9 10 1 -6 10 -11 21 -12 14 -1 20 4 20 19
0 14 5 18 16 14 8 -3 12 -2 9 4 -7 11 -1 13 75 16 30 1 84 5 120 8 36 4 97 9
135 11 39 3 76 7 83 10 6 2 12 -1 13 -8 0 -8 2 -8 6 1 4 10 10 9 26 -5 20 -17
21 -17 8 0 -8 9 -11 21 -7 24 4 4 10 3 14 -2 11 -15 46 -19 36 -4 -5 8 -3 9 7
3 23 -14 51 -15 88 -2 20 6 44 11 54 10 11 0 15 4 10 11 -5 9 -3 9 8 0 9 -7
32 -9 59 -6z m1387 -293 c-3 -3 -12 -4 -19 -1 -8 3 -5 6 6 6 11 1 17 -2 13 -5z
m-207 -412 c0 -15 2 -15 11 -2 8 11 9 8 4 -15 -11 -52 -22 -49 -29 8 -3 23 -1
35 4 32 6 -4 10 -14 10 -23z m47 -44 c-3 -8 -6 -5 -6 6 -1 11 2 17 5 13 3 -3
4 -12 1 -19z m-637 -1678 c0 -5 -7 -7 -15 -4 -8 4 -12 10 -9 15 6 11 24 2 24
-11z m-30 -36 c0 -2 -7 -4 -15 -4 -8 0 -15 4 -15 10 0 5 7 7 15 4 8 -4 15 -8
15 -10z m-255 -204 c17 -6 53 -23 82 -38 58 -29 66 -57 22 -79 -13 -7 -18 -13
-11 -13 9 0 8 -7 -5 -26 -17 -27 -17 -27 7 -19 32 11 178 7 200 -5 10 -5 20
-7 22 -4 3 3 8 -6 10 -20 4 -18 1 -23 -10 -18 -12 4 -14 0 -8 -24 5 -21 4 -25
-4 -14 -8 12 -10 12 -10 -5 0 -12 6 -27 13 -35 10 -12 9 -12 -4 -2 -19 14 -29
6 -29 -22 -1 -29 -26 -60 -41 -50 -8 4 -10 3 -5 -4 4 -7 -15 -21 -50 -38 -59
-28 -60 -28 -310 -38 -94 -4 -129 -9 -155 -24 -19 -10 -41 -17 -49 -15 -12 4
-12 3 -2 -5 11 -7 10 -12 -3 -26 -11 -10 -14 -23 -9 -34 33 -76 27 -122 -16
-122 -13 0 -17 -5 -13 -20 3 -12 2 -20 -3 -19 -22 4 -34 -2 -34 -16 0 -18 -16
-20 -23 -2 -3 6 -6 1 -6 -13 -1 -19 -4 -21 -10 -11 -5 8 -16 11 -25 8 -9 -4
-15 -1 -13 6 1 7 -7 12 -18 12 -11 0 -24 6 -28 13 -17 25 -29 11 -13 -15 l17
-28 -20 23 c-10 12 -26 22 -35 22 -20 0 -20 7 -1 26 19 19 20 54 1 54 -9 0
-12 8 -9 24 4 17 0 25 -16 29 -15 4 -21 13 -21 32 0 20 -4 26 -14 22 -10 -4
-13 -1 -9 9 3 9 -1 14 -12 14 -13 0 -15 3 -6 13 6 8 8 17 4 21 -4 4 -1 11 7
16 11 7 7 10 -13 16 -16 3 -26 11 -24 18 2 6 -2 31 -9 56 -12 39 -12 47 1 56
8 6 12 19 8 32 -3 13 -1 22 6 22 6 0 11 6 11 13 1 6 13 26 28 43 28 33 21 31
216 49 16 2 33 10 38 19 5 9 16 16 24 16 8 0 17 7 20 15 8 19 100 76 139 86
17 4 54 16 84 27 55 20 67 19 136 -8z m394 -229 c8 -5 9 -11 3 -15 -6 -3 -13
-2 -17 4 -4 6 -11 7 -17 4 -7 -4 -8 -2 -4 4 8 14 16 15 35 3z m107 -13 c16
-19 16 -20 2 -9 -17 12 -19 12 -17 -5 0 -4 -4 -10 -10 -13 -16 -10 4 -32 23
-25 14 5 15 9 4 16 -10 8 -10 9 1 6 27 -8 22 -26 -9 -33 -16 -4 -27 -11 -24
-16 3 -6 13 -8 23 -4 12 5 13 3 5 -5 -13 -13 -57 -4 -49 10 3 5 -2 13 -12 18
-14 9 -15 13 -4 26 18 21 7 21 -14 0 -12 -13 -19 -14 -28 -5 -8 8 -8 11 0 11
6 0 13 10 17 23 8 32 66 35 92 5z m-144 -12 c7 4 8 2 4 -5 -9 -13 -26 -5 -25
12 0 9 2 8 6 -1 2 -6 10 -9 15 -6z m22 -42 c3 -8 2 -12 -4 -9 -6 3 -10 10 -10
16 0 14 7 11 14 -7z m54 -26 c-6 -16 -21 -14 -24 4 -1 11 3 15 12 11 8 -3 13
-10 12 -15z m32 -38 c0 -5 -7 -10 -16 -10 -8 0 -12 5 -9 10 3 6 10 10 16 10 5
0 9 -4 9 -10z m-247 -266 c-7 -3 -9 -12 -6 -21 5 -13 3 -13 -15 -4 -35 19 -35
31 0 30 18 0 28 -3 21 -5z m-761 -709 c-2 -14 -8 -25 -13 -25 -10 0 -11 12 -3
34 10 25 22 19 16 -9z m25 -92 c-3 -10 -5 -4 -5 12 0 17 2 24 5 18 2 -7 2 -21
0 -30z m750 -70 c-3 -10 -5 -2 -5 17 0 19 2 27 5 18 2 -10 2 -26 0 -35z m-711
-30 c-10 -10 -19 5 -10 18 6 11 8 11 12 0 2 -7 1 -15 -2 -18z m224 -45 c0 -19
-2 -20 -10 -8 -13 19 -13 30 0 30 6 0 10 -10 10 -22z m481 -22 c12 -13 12 -26
0 -26 -12 0 -31 56 -23 65 4 4 9 -1 10 -12 2 -10 8 -22 13 -27z m-268 -1 c4
-8 2 -17 -2 -20 -5 -2 -11 4 -14 15 -6 23 8 27 16 5z m-77 -130 c-3 -5 -5 0
-5 12 -1 12 -5 25 -11 28 -12 7 -14 78 -2 89 8 8 24 -112 18 -129z m168 100
c3 -8 3 -22 -1 -31 -5 -13 -7 -13 -14 -2 -11 17 -11 48 0 48 5 0 11 -7 15 -15z
m-344 -5 c0 -5 -4 -10 -10 -10 -5 0 -10 5 -10 10 0 6 5 10 10 10 6 0 10 -4 10
-10z m231 -33 c-1 -4 -1 -17 -2 -29 0 -22 -1 -22 -9 -3 -12 28 -12 47 1 43 6
-2 10 -7 10 -11z"/>
<path d="M4260 7491 c0 -6 5 -13 10 -16 6 -3 10 1 10 9 0 9 -4 16 -10 16 -5 0
-10 -4 -10 -9z"/>
<path d="M3900 7361 c0 -5 5 -13 10 -16 6 -3 10 -2 10 4 0 5 -4 13 -10 16 -5
3 -10 2 -10 -4z"/>
<path d="M5056 6107 c3 -10 9 -15 12 -12 3 3 0 11 -7 18 -10 9 -11 8 -5 -6z"/>
<path d="M5346 5973 c-6 -14 -5 -15 5 -6 7 7 10 15 7 18 -3 3 -9 -2 -12 -12z"/>
<path d="M5110 5790 c0 -29 17 -43 44 -36 14 3 26 11 26 16 0 6 -11 8 -24 4
-17 -4 -27 0 -35 13 -8 13 -10 14 -11 3z"/>
<path d="M5140 5790 c0 -5 5 -10 11 -10 5 0 7 5 4 10 -3 6 -8 10 -11 10 -2 0
-4 -4 -4 -10z"/>
<path d="M5125 5730 c3 -5 11 -10 16 -10 6 0 7 5 4 10 -3 6 -11 10 -16 10 -6
0 -7 -4 -4 -10z"/>
<path d="M5085 5700 c3 -5 8 -10 11 -10 2 0 4 5 4 10 0 6 -5 10 -11 10 -5 0
-7 -4 -4 -10z"/>
<path d="M3005 5490 c-3 -5 -1 -10 4 -10 6 0 11 5 11 10 0 6 -2 10 -4 10 -3 0
-8 -4 -11 -10z"/>
<path d="M3277 5222 c-43 -45 -57 -55 -57 -43 0 9 -4 10 -12 4 -7 -5 -25 -10
-40 -11 -28 -2 -97 -65 -98 -89 0 -19 36 -25 81 -13 27 8 155 12 358 12 196 0
307 4 293 9 -13 5 -28 7 -33 3 -5 -3 -9 -1 -9 4 0 5 -21 9 -47 8 -45 -1 -85
14 -153 56 -15 9 -23 10 -28 2 -8 -13 -72 -7 -72 7 0 5 -17 9 -39 9 -22 0 -44
6 -51 15 -7 8 -19 15 -28 15 -8 0 -23 7 -32 15 -14 13 -18 12 -33 -3z"/>
<path d="M3560 5041 c-128 -5 -146 -7 -104 -14 27 -5 55 -7 60 -5 13 4 84 -34
84 -44 0 -5 7 -8 15 -8 8 0 15 -7 15 -15 0 -8 7 -15 15 -15 21 0 19 -17 -2
-24 -31 -10 -127 -9 -153 1 -14 6 -81 11 -150 12 -87 1 -140 7 -175 19 -27 9
-52 19 -55 23 -13 14 -40 16 -57 4 -25 -20 -33 -18 -33 7 0 12 2 19 5 16 3 -3
46 3 95 12 62 12 90 13 90 6 0 -8 2 -8 8 0 4 6 14 14 22 17 28 12 -110 -5
-225 -28 -79 -16 -128 -31 -155 -49 -158 -104 -184 -259 -105 -621 76 -353
153 -419 478 -414 146 2 238 12 372 40 112 24 153 38 207 76 32 22 118 122
118 138 0 3 11 28 25 57 36 75 93 311 107 444 10 101 10 120 -5 168 -22 68
-90 147 -129 149 -14 1 -24 5 -22 9 9 13 -64 36 -128 40 -34 3 -133 2 -218 -1z
m-565 -61 c-3 -5 -14 -10 -23 -10 -15 0 -15 2 -2 10 20 13 33 13 25 0z m725
-90 c0 -5 -9 -10 -21 -10 -11 0 -17 5 -14 10 3 6 13 10 21 10 8 0 14 -4 14
-10z m68 -16 c25 -7 31 -44 7 -44 -8 0 -15 -5 -15 -12 0 -6 -11 -1 -25 12 -19
18 -22 26 -14 37 13 15 15 15 47 7z m-82 -559 c2 -22 8 -41 14 -43 5 -2 10
-10 10 -17 0 -7 8 -15 18 -18 31 -7 -25 -23 -65 -19 -30 4 -34 7 -22 16 19 13
25 121 7 110 -7 -4 -8 -2 -4 5 16 25 38 6 42 -34z m60 -12 c-10 -10 -19 5 -10
18 6 11 8 11 12 0 2 -7 1 -15 -2 -18z m-646 -24 c0 -18 -4 -28 -10 -24 -6 4
-8 11 -5 16 4 5 1 9 -4 9 -6 0 -11 7 -11 15 0 8 7 15 15 15 10 0 15 -10 15
-31z m398 -6 c42 -26 30 -41 -26 -35 -58 6 -60 7 -36 31 24 25 27 25 62 4z
m-178 -13 c-18 -12 -30 -13 -30 -2 0 4 10 9 22 9 18 2 20 0 8 -7z m72 -2 c-17
-8 -26 -8 -34 0 -9 9 -4 12 23 11 32 0 33 -1 11 -11z m343 2 c3 -5 1 -10 -4
-10 -6 0 -11 5 -11 10 0 6 2 10 4 10 3 0 8 -4 11 -10z m-604 -23 c-10 -9 -11
-8 -5 6 3 10 9 15 12 12 3 -3 0 -11 -7 -18z m439 13 c0 -5 -7 -10 -15 -10 -8
0 -15 5 -15 10 0 6 7 10 15 10 8 0 15 -4 15 -10z m-179 -71 c16 -11 27 -25 23
-30 -3 -5 -3 -17 1 -28 5 -15 13 -17 57 -13 35 3 49 1 44 -6 -3 -6 -1 -14 5
-17 6 -4 13 2 16 14 7 26 39 24 37 -2 -3 -27 15 -20 28 11 6 15 11 30 10 34
-3 11 29 25 62 29 30 4 32 2 61 -64 25 -58 19 -67 -36 -53 -39 10 -46 10 -42
-1 6 -16 -52 -19 -62 -3 -10 16 -25 12 -26 -7 -1 -17 -2 -17 -6 0 -2 9 -9 17
-15 17 -6 0 -8 -10 -4 -25 6 -24 5 -25 -14 -13 -13 9 -18 19 -14 32 4 13 2 16
-6 11 -6 -4 -10 -18 -7 -31 2 -14 -1 -25 -9 -28 -9 -4 -14 2 -14 15 0 16 -4
19 -17 14 -10 -4 -27 -10 -38 -13 -11 -2 -26 -10 -33 -15 -10 -8 -16 -7 -22 3
-5 8 -7 17 -4 19 3 3 9 -1 13 -8 6 -9 11 -10 15 -2 11 17 -4 32 -24 26 -11 -3
-30 -1 -42 6 -23 12 -23 12 -5 -9 15 -16 16 -22 5 -28 -7 -4 -10 -4 -6 1 5 5
-5 16 -22 26 -19 12 -28 24 -24 34 7 17 24 20 24 4 0 -5 5 -7 10 -4 8 5 7 11
-1 21 -6 7 -16 11 -21 8 -7 -4 -7 0 0 12 5 11 7 25 5 32 -3 6 2 12 10 12 8 0
18 7 21 16 3 8 10 12 16 9 5 -3 10 -1 10 4 0 16 8 14 41 -10z m365 -56 c-7 -7
-26 7 -26 19 0 6 6 6 15 -2 9 -7 13 -15 11 -17z m-103 -108 c4 -8 2 -17 -3
-20 -6 -4 -10 -4 -10 -1 0 2 -3 11 -6 20 -3 9 -2 16 4 16 5 0 12 -7 15 -15z
m-183 1 c0 -2 -9 -6 -20 -9 -11 -3 -18 -1 -14 4 5 9 34 13 34 5z m-167 -13
c-7 -2 -19 -2 -25 0 -7 3 -2 5 12 5 14 0 19 -2 13 -5z"/>
<path d="M3480 4266 c0 -9 5 -16 10 -16 6 0 10 4 10 9 0 6 -4 13 -10 16 -5 3
-10 -1 -10 -9z"/>
<path d="M3940 5032 c42 -28 130 -120 130 -136 0 -9 5 -16 10 -16 6 0 10 -6 9
-12 -3 -23 1 -38 9 -38 9 0 10 29 1 45 -3 6 -7 27 -8 48 -2 35 0 37 19 27 17
-9 20 -8 19 12 0 13 -3 17 -6 11 -4 -10 -9 -10 -26 -1 -12 7 -25 11 -29 10 -5
-1 -8 4 -8 12 0 8 -15 17 -37 21 -20 4 -46 13 -57 21 -11 8 -27 14 -36 13 -10
0 -7 -6 10 -17z"/>
<path d="M4490 5034 c0 -8 -4 -13 -9 -10 -5 3 -14 -1 -21 -10 -11 -12 -15 -12
-21 -2 -7 11 -9 11 -9 0 0 -8 -5 -10 -12 -6 -8 5 -9 2 -5 -9 5 -13 1 -17 -16
-18 -12 0 -16 -3 -9 -6 6 -2 10 -9 6 -14 -3 -5 0 -8 7 -7 7 2 13 -5 12 -14 0
-10 -1 -29 -2 -43 0 -14 -4 -24 -8 -24 -21 3 -24 -3 -12 -18 12 -15 12 -16 -1
-8 -8 4 -6 -1 5 -12 11 -11 24 -18 29 -15 5 3 15 -3 23 -13 12 -17 13 -17 13
11 0 58 89 204 125 204 7 0 18 7 25 15 11 13 4 15 -54 15 -53 0 -66 -3 -66
-16z"/>
<path d="M4780 5040 c-95 -6 -109 -10 -150 -38 -107 -72 -133 -120 -138 -247
-4 -112 6 -178 59 -370 41 -151 96 -262 155 -314 76 -67 206 -119 268 -107 20
4 26 3 17 -3 -23 -15 125 -26 339 -26 182 0 198 1 236 22 131 70 182 167 230
441 35 197 37 348 7 414 -35 77 -106 139 -193 170 -82 29 -180 48 -250 48 -43
0 -44 -1 -20 -13 27 -13 41 -57 18 -57 -10 0 -9 -3 2 -10 12 -7 12 -10 -4 -16
-12 -5 -23 -2 -30 8 -6 8 -16 13 -23 11 -6 -2 -18 5 -26 17 -11 17 -19 19 -38
11 -21 -9 -22 -10 -4 -11 18 0 18 -2 4 -10 -20 -11 -101 -9 -110 3 -3 5 -13 2
-22 -7 -13 -13 -16 -13 -20 -2 -4 10 -14 12 -29 8 l-23 -6 25 -8 c14 -4 -27
-6 -93 -5 -64 2 -122 8 -127 13 -6 5 13 8 48 6 56 -2 56 -2 27 12 -16 8 -25
15 -20 15 6 1 4 5 -4 10 -19 12 -6 29 32 40 l32 9 -35 0 c-19 -1 -82 -4 -140
-8z m620 -54 c0 -3 -4 -8 -10 -11 -5 -3 -10 -1 -10 4 0 6 5 11 10 11 6 0 10
-2 10 -4z m-585 -24 c-3 -3 -11 0 -18 7 -9 10 -8 11 6 5 10 -3 15 -9 12 -12z
m728 -37 c27 1 51 -3 53 -7 3 -4 -20 -8 -50 -8 -47 0 -57 3 -66 23 -9 18 -9
20 2 7 8 -10 30 -15 61 -15z m-83 -87 c0 -33 -3 -38 -22 -38 -23 1 -58 21 -58
34 0 3 11 6 24 6 14 0 28 5 31 10 3 6 -2 10 -12 10 -13 0 -15 3 -5 8 29 19 42
9 42 -30z m-87 25 c-7 -2 -19 -2 -25 0 -7 3 -2 5 12 5 14 0 19 -2 13 -5z m77
-89 c0 -14 -3 -14 -15 -4 -8 7 -15 14 -15 16 0 2 7 4 15 4 8 0 15 -7 15 -16z
m-74 -211 c-10 -10 -19 5 -10 18 6 11 8 11 12 0 2 -7 1 -15 -2 -18z m-577
-270 c0 -35 -1 -36 -10 -14 -5 14 -7 31 -5 38 10 24 16 13 15 -24z m204 -145
c-9 -10 -13 -24 -10 -33 4 -9 1 -15 -8 -15 -8 0 -15 5 -15 10 0 6 -12 10 -26
10 -14 0 -23 4 -19 10 3 6 17 7 31 4 14 -4 24 -2 22 2 -1 5 1 19 6 31 6 18 10
20 21 10 11 -10 11 -15 -2 -29z m-58 -48 c-3 -5 3 -10 14 -10 12 0 21 -4 21
-10 0 -11 -13 -14 -45 -10 -16 2 -17 0 -6 -14 7 -9 9 -16 3 -16 -5 0 -12 7
-16 15 -3 8 -11 13 -18 11 -7 -1 -10 -1 -5 1 4 3 7 12 7 20 0 9 6 13 15 10 8
-4 17 -2 20 3 4 6 8 10 11 10 3 0 2 -4 -1 -10z m-45 -110 c0 -5 -2 -10 -4 -10
-3 0 -8 5 -11 10 -3 6 -1 10 4 10 6 0 11 -4 11 -10z"/>
<path d="M4955 4960 c4 -6 11 -8 16 -5 14 9 11 15 -7 15 -8 0 -12 -5 -9 -10z"/>
<path d="M4390 4920 c-9 -6 -10 -10 -3 -10 6 0 15 5 18 10 8 12 4 12 -15 0z"/>
<path d="M4235 4801 c-27 -8 -25 -9 20 -11 28 -1 54 -2 59 -1 4 1 14 -4 22
-10 8 -6 14 -8 14 -4 0 4 10 -5 22 -20 20 -25 26 -56 29 -142 1 -13 5 -23 9
-23 4 0 6 -13 4 -30 -2 -16 1 -30 7 -30 6 0 8 4 4 9 -3 5 -1 12 5 16 6 4 10
-5 10 -19 0 -14 9 -48 20 -76 11 -28 20 -62 20 -76 0 -16 4 -23 12 -18 7 4 8
3 4 -4 -4 -7 -4 -18 1 -24 7 -12 11 -25 17 -58 1 -8 8 -28 14 -43 7 -16 12
-37 12 -48 0 -10 5 -19 10 -19 6 0 10 -5 10 -10 0 -6 15 -35 34 -63 22 -35 40
-53 53 -53 13 0 19 5 16 13 -3 7 -8 13 -12 13 -14 0 -88 157 -111 235 -13 44
-31 91 -40 105 -40 61 -64 160 -41 174 5 4 5 22 0 45 -5 21 -7 61 -5 89 l3 51
-50 16 c-61 20 -132 26 -172 16z"/>
<path d="M4153 4782 c-24 -9 -43 -20 -43 -25 0 -5 3 -7 8 -5 4 2 24 10 45 18
20 8 37 18 37 22 0 4 -1 8 -2 7 -2 0 -22 -8 -45 -17z"/>
<path d="M2655 4700 c-10 -11 -15 -23 -12 -27 7 -6 36 25 37 40 0 11 -6 8 -25
-13z"/>
<path d="M2660 4665 c-7 -13 -17 -22 -22 -19 -11 7 -38 -14 -38 -30 0 -6 5 -4
11 4 8 11 12 12 16 3 2 -7 15 -13 28 -13 19 0 23 6 27 40 4 46 -3 51 -22 15z"/>
<path d="M4096 4587 c3 -10 9 -15 12 -12 3 3 0 11 -7 18 -10 9 -11 8 -5 -6z"/>
<path d="M4045 4389 c-4 -6 -5 -12 -2 -15 2 -3 7 2 10 11 7 17 1 20 -8 4z"/>
<path d="M4160 3780 c0 -5 5 -10 11 -10 5 0 7 5 4 10 -3 6 -8 10 -11 10 -2 0
-4 -4 -4 -10z"/>
<path d="M4311 3451 l-23 -20 31 2 c33 2 35 5 23 25 -7 10 -14 8 -31 -7z"/>
<path d="M4355 3460 c3 -5 8 -10 11 -10 2 0 4 5 4 10 0 6 -5 10 -11 10 -5 0
-7 -4 -4 -10z"/>
<path d="M4420 3456 c0 -2 7 -7 16 -10 8 -3 12 -2 9 4 -6 10 -25 14 -25 6z"/>
<path d="M4156 3341 c-17 -7 -18 -8 -3 -14 17 -6 87 0 96 8 2 3 -7 5 -22 5
-14 0 -31 2 -39 4 -7 3 -22 1 -32 -3z"/>
<path d="M4596 3238 c3 -4 9 -8 15 -8 5 0 9 4 9 8 0 5 -7 9 -15 9 -8 0 -12 -4
-9 -9z"/>
</g>
</svg>
